<?xml version="1.0" encoding="utf-8"?>
<!-- Generator: Adobe Illustrator 22.0.1, SVG Export Plug-In . SVG Version: 6.00 Build 0)  -->
<svg version="1.1"
	 id="Layer_1" xmlns:cc="http://creativecommons.org/ns#" xmlns:dc="http://purl.org/dc/elements/1.1/" xmlns:inkscape="http://www.inkscape.org/namespaces/inkscape" xmlns:rdf="http://www.w3.org/1999/02/22-rdf-syntax-ns#" xmlns:sodipodi="http://sodipodi.sourceforge.net/DTD/sodipodi-0.dtd" xmlns:svg="http://www.w3.org/2000/svg"
	 xmlns="http://www.w3.org/2000/svg" xmlns:xlink="http://www.w3.org/1999/xlink" x="0px" y="0px" viewBox="0 0 88 83.9"
	 style="enable-background:new 0 0 88 83.9;" xml:space="preserve">
<style type="text/css">
	.st0{fill:#FFDB4D;}
</style>
<g transform="translate(0,-952.36218)">
	<path class="st0" d="M43.9,952.4c-0.8,0-1.6,0.6-1.8,1.4l-9.4,29.2L2,982.9c-1.1,0-2,0.9-2,2c0,0.6,0.3,1.2,0.8,1.6l24.8,18
		l-9.5,29.2c-0.3,1.1,0.2,2.2,1.3,2.5c0.6,0.2,1.3,0.1,1.8-0.3l24.8-18.1l24.8,18.1c0.9,0.7,2.1,0.5,2.8-0.4
		c0.4-0.5,0.5-1.2,0.3-1.8l-9.5-29.2l24.8-18c0.9-0.6,1.1-1.9,0.4-2.8c-0.4-0.5-1-0.8-1.6-0.8l-30.7,0.1l-9.4-29.2
		C45.6,952.9,44.8,952.3,43.9,952.4z"/>
</g>
</svg>
